<svg width="138" height="132" viewBox="0 0 138 132" fill="none" xmlns="http://www.w3.org/2000/svg">
<path d="M134.68 2.35156L134.993 2.83531C126.722 14.0942 118.503 25.297 118.547 39.8466C118.558 43.3518 119.039 46.389 119.52 49.8457C120.016 53.4028 121.195 57.3141 121.59 60.8015C123.044 73.6531 119.609 86.5811 111.967 97.0157C96.6865 117.914 68.5644 124.165 45.8204 111.795C43.9145 110.758 42.0813 109.56 40.2549 108.39C41.7856 108.026 43.9429 106.832 45.4318 106.165C48.8335 104.64 52.4998 102.665 55.9918 101.422C67.2667 105.03 76.9335 105.588 87.8078 99.988C96.6385 95.3641 103.275 87.427 106.262 77.9171C108.663 70.5627 108.618 62.6286 106.133 55.3022C105.551 53.5546 105.099 50.6299 102.942 50.1265C101.484 49.7861 100.051 49.7383 98.7934 50.6142C96.0434 52.3922 93.3108 54.5057 90.6915 56.4442L75.1588 67.9198L62.087 77.503C60.4578 78.6909 56.4717 81.4583 55.2215 82.6611C55.0656 82.1319 55.2821 82.0824 55.6129 81.6413L109.919 26.9811C118.014 18.8598 126.817 10.5394 134.68 2.35156Z" fill="black"/>
<path d="M68.1812 15.0732C79.3815 14.5302 91.3007 18.2146 100.394 24.7518C96.9744 26.0657 93.1661 28.1798 89.7209 29.6496C88.0727 30.3527 86.7625 31.154 84.9766 31.7022C82.6893 31.1687 80.14 30.1758 77.8029 29.725C71.4096 28.4156 65.4952 29.1008 59.286 30.8301C36.8404 37.0808 24.8888 65.3631 37.5785 85.5071C38.3041 86.659 39.087 87.7737 39.9242 88.8471C40.6441 89.7645 42.7308 91.7495 42.9772 92.6073C42.6114 93.5332 23.8776 109.969 21.4106 112.174C20.6732 112.915 19.5827 113.858 18.7791 114.535C12.4277 119.886 6.35349 125.933 0 131.231C0.887714 129.84 2.16346 128.503 3.23159 127.225C12.3755 116.284 28.5816 104.806 23.5223 88.4392C22.9811 86.9152 22.4082 85.4004 21.8555 83.8802C15.5077 66.421 19.6856 45.9243 32.0058 32.1578C41.3037 21.8669 54.3271 15.7164 68.1812 15.0732Z" fill="black"/>
<path d="M55.2209 82.6614C54.9608 82.9928 54.1844 83.554 53.7744 83.6414C54.0958 82.95 54.9548 82.0243 55.6122 81.6416C55.2814 82.0827 55.0649 82.1321 55.2209 82.6614Z" fill="black" fill-opacity="0.541176"/>
<path d="M135.782 1.26855C135.713 1.55004 135.634 1.93148 135.549 2.19855L134.992 2.83564L134.679 2.3519C134.854 2.0789 135.508 1.51821 135.782 1.26855Z" fill="black" fill-opacity="0.776471"/>
<path d="M135.782 1.26866C136.237 0.740317 136.498 0.46526 137.016 0C136.605 0.936617 136.274 1.44409 135.549 2.19866C135.634 1.93158 135.713 1.55014 135.782 1.26866Z" fill="black" fill-opacity="0.509804"/>
</svg>
